<svg width="175" height="28" viewBox="0 0 175 28" fill="none"
    xmlns="http://www.w3.org/2000/svg">
    <g clip-path="url(#clip0_68_20)">
        <path d="M51.7059 9.57108C54.6182 9.57108 56.0744 11.3204 56.0744 14.819V21.7453C56.0744 22.1537 55.95 22.4734 55.7014 22.7043C55.4528 22.9174 55.1243 23.024 54.7159 23.024C54.3252 23.024 54.0055 22.9174 53.7569 22.7043C53.5083 22.4734 53.384 22.1537 53.384 21.7453V14.8457C53.384 13.7623 53.1887 12.9809 52.798 12.5014C52.4073 12.0041 51.7947 11.7555 50.96 11.7555C49.9833 11.7555 49.2108 12.0929 48.6426 12.7678C48.0743 13.4249 47.7902 14.3306 47.7902 15.485V21.7453C47.7902 22.1537 47.6659 22.4734 47.4173 22.7043C47.1687 22.9174 46.8401 23.024 46.4317 23.024C46.041 23.024 45.7214 22.9174 45.4728 22.7043C45.2242 22.4734 45.0999 22.1537 45.0999 21.7453V14.8457C45.0999 13.7623 44.9045 12.9809 44.5138 12.5014C44.1232 12.0041 43.5105 11.7555 42.6759 11.7555C41.6992 11.7555 40.9178 12.0929 40.3318 12.7678C39.7635 13.4249 39.4794 14.3306 39.4794 15.485V21.7453C39.4794 22.1537 39.3551 22.4734 39.1065 22.7043C38.8579 22.9174 38.5382 23.024 38.1476 23.024C37.7569 23.024 37.4284 22.9174 37.162 22.7043C36.9134 22.4734 36.7891 22.1537 36.7891 21.7453V10.9031C36.7891 10.5123 36.9222 10.2015 37.1886 9.97067C37.455 9.7398 37.7746 9.62436 38.1476 9.62436C38.5205 9.62436 38.8224 9.7398 39.0532 9.97067C39.3018 10.1838 39.4261 10.4857 39.4261 10.8764V11.8621C39.8168 11.1162 40.3584 10.5479 41.051 10.1571C41.7436 9.76644 42.5427 9.57108 43.4483 9.57108C44.4428 9.57108 45.2597 9.77532 45.899 10.1838C46.556 10.5923 47.0444 11.2227 47.364 12.0752C47.7547 11.3115 48.3318 10.7077 49.0954 10.2637C49.859 9.80196 50.7292 9.57108 51.7059 9.57108ZM69.9337 19.6141C70.1824 19.6141 70.3866 19.7118 70.5464 19.9072C70.7062 20.1025 70.7861 20.3511 70.7861 20.6531C70.7861 21.1681 70.4665 21.6032 69.8272 21.9584C69.2057 22.3136 68.522 22.5888 67.7761 22.7842C67.0481 22.9796 66.3466 23.0772 65.6718 23.0772C63.6119 23.0772 61.987 22.4823 60.7972 21.2924C59.6074 20.0847 59.0125 18.442 59.0125 16.3641C59.0125 15.0322 59.27 13.8511 59.785 12.8211C60.3177 11.791 61.0547 10.9918 61.9959 10.4235C62.9548 9.85523 64.0381 9.57108 65.2456 9.57108C66.9859 9.57108 68.3622 10.1305 69.3744 11.2494C70.3866 12.3682 70.8927 13.8778 70.8927 15.7781C70.8927 16.4884 70.573 16.8436 69.9337 16.8436H61.7029C61.8805 19.5964 63.2034 20.9727 65.6718 20.9727C66.3289 20.9727 66.8971 20.8839 67.3766 20.7063C67.8561 20.5287 68.3622 20.2979 68.8949 20.0137C68.9482 19.9782 69.0902 19.9072 69.3211 19.8006C69.5697 19.6763 69.7739 19.6141 69.9337 19.6141ZM65.2989 11.5424C64.2689 11.5424 63.4432 11.8709 62.8216 12.5281C62.2001 13.1852 61.8272 14.1087 61.7029 15.2985H68.5753C68.522 14.0909 68.2112 13.1674 67.643 12.5281C67.0925 11.8709 66.3111 11.5424 65.2989 11.5424ZM83.9262 9.62436C84.3346 9.62436 84.6542 9.7398 84.8851 9.97067C85.1337 10.2015 85.258 10.5212 85.258 10.9297V21.7719C85.258 22.1449 85.1337 22.4468 84.8851 22.6776C84.6365 22.9085 84.3079 23.024 83.8995 23.024C83.5266 23.024 83.2247 22.9174 82.9939 22.7043C82.763 22.4734 82.6476 22.1715 82.6476 21.7985V20.7863C82.2391 21.5322 81.6709 22.1005 80.9428 22.4912C80.2325 22.8819 79.4333 23.0772 78.5454 23.0772C75.3845 23.0772 73.804 21.3368 73.804 17.8559V10.9297C73.804 10.5212 73.9195 10.2015 74.1503 9.97067C74.3989 9.7398 74.7363 9.62436 75.1625 9.62436C75.571 9.62436 75.8906 9.7398 76.1215 9.97067C76.3701 10.2015 76.4944 10.5212 76.4944 10.9297V17.8293C76.4944 18.8771 76.7075 19.6496 77.1337 20.1469C77.5599 20.6442 78.2169 20.8928 79.1048 20.8928C80.1526 20.8928 80.9872 20.5554 81.6087 19.8805C82.248 19.2056 82.5677 18.3088 82.5677 17.1899V10.9297C82.5677 10.539 82.692 10.2282 82.9406 9.99731C83.1892 9.74868 83.5177 9.62436 83.9262 9.62436ZM96.0017 9.57108C97.1204 9.57108 98.1149 9.85523 98.985 10.4235C99.8729 10.9918 100.557 11.791 101.036 12.8211C101.533 13.8511 101.782 15.041 101.782 16.3908C101.782 17.7227 101.542 18.8949 101.063 19.9072C100.583 20.9194 99.8996 21.7009 99.0117 22.2514C98.1415 22.802 97.1382 23.0772 96.0017 23.0772C95.025 23.0772 94.1637 22.873 93.4178 22.4645C92.672 22.0383 92.1038 21.4345 91.7131 20.6531V26.5936C91.7131 26.9666 91.5888 27.2596 91.3402 27.4727C91.1093 27.7036 90.7985 27.819 90.4079 27.819C89.9994 27.819 89.662 27.7036 89.3956 27.4727C89.147 27.2419 89.0227 26.9311 89.0227 26.5404V10.9297C89.0227 10.539 89.147 10.2282 89.3956 9.99731C89.6443 9.74868 89.9728 9.62436 90.3812 9.62436C90.7719 9.62436 91.0915 9.74868 91.3402 9.99731C91.5888 10.2282 91.7131 10.539 91.7131 10.9297V12.0219C92.1038 11.2405 92.672 10.6367 93.4178 10.2104C94.1637 9.7842 95.025 9.57108 96.0017 9.57108ZM95.3624 20.9461C96.5344 20.9461 97.4401 20.5554 98.0794 19.774C98.7186 18.9748 99.0383 17.847 99.0383 16.3908C99.0383 14.9167 98.7098 13.7712 98.0527 12.9543C97.4134 12.1373 96.5166 11.7289 95.3624 11.7289C94.1903 11.7289 93.2847 12.1285 92.6454 12.9276C92.0238 13.7268 91.7131 14.8634 91.7131 16.3375C91.7131 17.8115 92.0238 18.9481 92.6454 19.7473C93.2847 20.5465 94.1903 20.9461 95.3624 20.9461ZM114.936 19.6141C115.185 19.6141 115.389 19.7118 115.549 19.9072C115.709 20.1025 115.789 20.3511 115.789 20.6531C115.789 21.1681 115.469 21.6032 114.83 21.9584C114.208 22.3136 113.524 22.5888 112.779 22.7842C112.051 22.9796 111.349 23.0772 110.674 23.0772C108.614 23.0772 106.989 22.4823 105.8 21.2924C104.61 20.0847 104.015 18.442 104.015 16.3641C104.015 15.0322 104.272 13.8511 104.787 12.8211C105.32 11.791 106.057 10.9918 106.998 10.4235C107.957 9.85523 109.041 9.57108 110.248 9.57108C111.988 9.57108 113.365 10.1305 114.377 11.2494C115.389 12.3682 115.895 13.8778 115.895 15.7781C115.895 16.4884 115.576 16.8436 114.936 16.8436H106.705C106.883 19.5964 108.206 20.9727 110.674 20.9727C111.331 20.9727 111.9 20.8839 112.379 20.7063C112.859 20.5287 113.365 20.2979 113.897 20.0137C113.951 19.9782 114.093 19.9072 114.324 19.8006C114.572 19.6763 114.776 19.6141 114.936 19.6141ZM110.301 11.5424C109.271 11.5424 108.446 11.8709 107.824 12.5281C107.203 13.1852 106.83 14.1087 106.705 15.2985H113.578C113.524 14.0909 113.214 13.1674 112.645 12.5281C112.095 11.8709 111.314 11.5424 110.301 11.5424ZM129.488 3.97683C129.897 3.97683 130.225 4.09227 130.474 4.32315C130.722 4.55402 130.847 4.86481 130.847 5.25551V21.7186C130.847 22.1271 130.722 22.4468 130.474 22.6776C130.243 22.9085 129.923 23.024 129.515 23.024C129.106 23.024 128.778 22.9085 128.529 22.6776C128.298 22.4468 128.183 22.1271 128.183 21.7186V20.6531C127.792 21.4345 127.224 22.0383 126.478 22.4645C125.732 22.873 124.871 23.0772 123.894 23.0772C122.776 23.0772 121.772 22.7931 120.884 22.2248C120.014 21.6565 119.33 20.8573 118.833 19.8272C118.354 18.7972 118.114 17.6162 118.114 16.2842C118.114 14.9345 118.354 13.7535 118.833 12.7412C119.33 11.7289 120.014 10.9474 120.884 10.3969C121.754 9.84636 122.758 9.57108 123.894 9.57108C124.871 9.57108 125.723 9.7842 126.451 10.2104C127.197 10.6189 127.766 11.205 128.156 11.9686V5.20223C128.156 4.82929 128.272 4.53626 128.503 4.32315C128.751 4.09227 129.08 3.97683 129.488 3.97683ZM124.534 20.9461C125.688 20.9461 126.585 20.5465 127.224 19.7473C127.863 18.9481 128.183 17.8115 128.183 16.3375C128.183 14.8634 127.863 13.7268 127.224 12.9276C126.602 12.1285 125.706 11.7289 124.534 11.7289C123.362 11.7289 122.447 12.1285 121.79 12.9276C121.151 13.7091 120.831 14.8279 120.831 16.2842C120.831 17.7405 121.16 18.886 121.817 19.7207C122.474 20.5376 123.379 20.9461 124.534 20.9461ZM135.956 23.024C135.565 23.024 135.236 22.9174 134.97 22.7043C134.721 22.4912 134.597 22.1715 134.597 21.7453V10.9297C134.597 10.5035 134.721 10.1838 134.97 9.97067C135.236 9.7398 135.565 9.62436 135.956 9.62436C136.346 9.62436 136.666 9.7398 136.915 9.97067C137.163 10.1838 137.287 10.5035 137.287 10.9297V21.7453C137.287 22.1715 137.163 22.4912 136.915 22.7043C136.666 22.9174 136.346 23.024 135.956 23.024ZM135.956 7.0137C135.441 7.0137 135.032 6.87163 134.73 6.58747C134.428 6.30332 134.277 5.93037 134.277 5.46862C134.277 5.00689 134.428 4.64282 134.73 4.37643C135.032 4.09227 135.441 3.9502 135.956 3.9502C136.453 3.9502 136.852 4.09227 137.154 4.37643C137.474 4.64282 137.634 5.00689 137.634 5.46862C137.634 5.93037 137.483 6.30332 137.181 6.58747C136.879 6.87163 136.471 7.0137 135.956 7.0137ZM142.354 23.024C141.874 23.024 141.466 22.8641 141.129 22.5444C140.809 22.2248 140.649 21.8163 140.649 21.319C140.649 20.8218 140.809 20.4133 141.129 20.0936C141.466 19.7562 141.874 19.5875 142.354 19.5875C142.833 19.5875 143.233 19.7562 143.553 20.0936C143.872 20.4133 144.032 20.8218 144.032 21.319C144.032 21.8163 143.872 22.2248 143.553 22.5444C143.233 22.8641 142.833 23.024 142.354 23.024Z" fill="#000000"/>
        <path d="M157.612 3.9502C158.021 3.9502 158.349 4.06563 158.598 4.29651C158.847 4.52738 158.971 4.83817 158.971 5.22888V21.692C158.971 22.1005 158.847 22.4202 158.598 22.651C158.367 22.8819 158.047 22.9973 157.639 22.9973C157.231 22.9973 156.902 22.8819 156.653 22.651C156.423 22.4202 156.307 22.1005 156.307 21.692V20.6264C155.916 21.4079 155.348 22.0117 154.602 22.4379C153.857 22.8464 152.995 23.0506 152.019 23.0506C150.9 23.0506 149.896 22.7665 149.009 22.1982C148.138 21.6299 147.455 20.8307 146.957 19.8006C146.478 18.7706 146.238 17.5895 146.238 16.2576C146.238 14.9079 146.478 13.7268 146.957 12.7145C147.455 11.7022 148.138 10.9208 149.009 10.3703C149.879 9.81973 150.882 9.54446 152.019 9.54446C152.995 9.54446 153.848 9.75758 154.576 10.1838C155.322 10.5923 155.89 11.1783 156.28 11.942V5.17561C156.28 4.80265 156.396 4.50962 156.627 4.29651C156.875 4.06563 157.204 3.9502 157.612 3.9502ZM152.658 20.9195C153.812 20.9195 154.709 20.5199 155.348 19.7207C155.987 18.9215 156.307 17.7849 156.307 16.3109C156.307 14.8368 155.987 13.7002 155.348 12.901C154.727 12.1018 153.83 11.7022 152.658 11.7022C151.486 11.7022 150.571 12.1018 149.914 12.901C149.275 13.6824 148.955 14.8013 148.955 16.2576C148.955 17.7139 149.284 18.8594 149.941 19.6941C150.598 20.511 151.504 20.9195 152.658 20.9195ZM168.369 23.0506C167.091 23.0506 165.963 22.7753 164.986 22.2248C164.027 21.6742 163.282 20.8928 162.749 19.8805C162.234 18.8505 161.976 17.6606 161.976 16.3109C161.976 14.9434 162.234 13.7535 162.749 12.7412C163.282 11.7111 164.027 10.9208 164.986 10.3703C165.963 9.81973 167.091 9.54446 168.369 9.54446C169.648 9.54446 170.767 9.81973 171.726 10.3703C172.702 10.9208 173.448 11.7111 173.963 12.7412C174.496 13.7535 174.762 14.9434 174.762 16.3109C174.762 17.6606 174.496 18.8505 173.963 19.8805C173.448 20.8928 172.702 21.6742 171.726 22.2248C170.767 22.7753 169.648 23.0506 168.369 23.0506ZM168.369 20.9195C169.559 20.9195 170.465 20.5288 171.086 19.7473C171.726 18.9659 172.045 17.8204 172.045 16.3109C172.045 14.8191 171.726 13.6824 171.086 12.901C170.447 12.1018 169.541 11.7022 168.369 11.7022C167.197 11.7022 166.292 12.1018 165.652 12.901C165.013 13.6824 164.693 14.8191 164.693 16.3109C164.693 17.8204 165.004 18.9659 165.626 19.7473C166.265 20.5288 167.18 20.9195 168.369 20.9195Z" fill="#05BDE6"/>
        <path d="M14.0014 0.53846C13.9576 0.53846 13.9134 0.540703 13.8699 0.544869C13.826 0.549355 13.7825 0.555764 13.7393 0.564096C13.6961 0.572428 13.6532 0.583003 13.6113 0.595821C13.5691 0.608319 13.5279 0.62306 13.4869 0.639723C13.4463 0.656387 13.4067 0.674653 13.3677 0.695162C13.3291 0.715671 13.2911 0.738103 13.2547 0.762137C13.218 0.786491 13.1826 0.812128 13.1488 0.839687C13.1147 0.867246 13.0819 0.896407 13.0511 0.927171C13.0199 0.957935 12.9903 0.9903 12.9624 1.02363C12.9344 1.05728 12.9081 1.0922 12.8838 1.12842C12.8594 1.16463 12.8367 1.2018 12.8159 1.23993C12.7951 1.27839 12.7763 1.31748 12.7594 1.35786C12.7428 1.39792 12.7279 1.43862 12.7152 1.48028C12.7022 1.52193 12.6915 1.56391 12.683 1.60653C12.6743 1.64915 12.6681 1.6921 12.6636 1.73536C12.6593 1.77862 12.6571 1.8222 12.6571 1.86546C12.6571 1.90904 12.6593 1.9523 12.6636 1.99557C12.6681 2.03883 12.6743 2.08177 12.683 2.12439C12.6915 2.16701 12.7022 2.20931 12.7152 2.25065C12.7279 2.29231 12.7428 2.33332 12.7594 2.37338C12.7763 2.41344 12.7951 2.45285 12.8159 2.49099C12.8367 2.52944 12.8594 2.56662 12.8838 2.60283C12.9081 2.63904 12.9344 2.67365 12.9624 2.7073C12.9903 2.74094 13.0199 2.77331 13.0511 2.80375C13.0819 2.83452 13.1147 2.86368 13.1488 2.89124C13.1826 2.91879 13.218 2.94475 13.2547 2.96879C13.2911 2.99314 13.3291 3.01525 13.3677 3.03576C13.4067 3.05627 13.4463 3.07486 13.4869 3.09152C13.5279 3.10818 13.5691 3.12292 13.6113 3.13542C13.6532 3.14792 13.6961 3.15849 13.7393 3.16715C13.7825 3.17548 13.826 3.18189 13.8699 3.18605C13.9134 3.19054 13.9576 3.19246 14.0014 3.19246C14.0456 3.19246 14.0895 3.19054 14.1333 3.18605C14.1772 3.18189 14.2207 3.17548 14.2639 3.16715C14.3071 3.15849 14.3496 3.14792 14.3919 3.13542C14.4338 3.12292 14.4753 3.10818 14.5159 3.09152C14.5565 3.07486 14.5965 3.05627 14.6351 3.03576C14.6741 3.01525 14.7118 2.99314 14.7485 2.96879C14.7849 2.94475 14.8203 2.91879 14.8544 2.89124C14.8885 2.86368 14.921 2.83452 14.9521 2.80375C14.9833 2.77331 15.0129 2.74094 15.0408 2.7073C15.0687 2.67365 15.0947 2.63904 15.1194 2.60283C15.1438 2.56662 15.1665 2.52944 15.187 2.49099C15.2078 2.45285 15.2266 2.41344 15.2435 2.37338C15.2604 2.33332 15.2753 2.29231 15.288 2.25065C15.3007 2.20931 15.3114 2.16701 15.3201 2.12439C15.3286 2.08177 15.3351 2.03883 15.3393 1.99557C15.3439 1.9523 15.3458 1.90904 15.3458 1.86546C15.3458 1.8222 15.3439 1.77862 15.3393 1.73536C15.3351 1.6921 15.3286 1.64915 15.3201 1.60653C15.3114 1.56391 15.3007 1.52193 15.288 1.48028C15.2753 1.43862 15.2604 1.39792 15.2435 1.35786C15.2266 1.31748 15.2078 1.27839 15.187 1.23993C15.1665 1.2018 15.1438 1.16463 15.1194 1.12842C15.0947 1.0922 15.0687 1.05728 15.0408 1.02363C15.0129 0.9903 14.9833 0.957935 14.9521 0.927171C14.921 0.896407 14.8885 0.867246 14.8544 0.839687C14.8203 0.812128 14.7849 0.786491 14.7485 0.762137C14.7118 0.738103 14.6741 0.715671 14.6351 0.695162C14.5965 0.674653 14.5565 0.656387 14.5159 0.639723C14.4753 0.62306 14.4338 0.608319 14.3919 0.595821C14.3496 0.583003 14.3071 0.572428 14.2639 0.564096C14.2207 0.555764 14.1772 0.549355 14.1333 0.544869C14.0895 0.540703 14.0456 0.53846 14.0014 0.53846ZM20.9922 0.53846C20.9481 0.53846 20.9042 0.540703 20.8604 0.544869C20.8165 0.549355 20.773 0.555764 20.7298 0.564096C20.6866 0.572428 20.644 0.583003 20.6018 0.595821C20.5596 0.608319 20.5183 0.62306 20.4777 0.639723C20.4371 0.656387 20.3972 0.674653 20.3585 0.695162C20.3196 0.715671 20.2819 0.738103 20.2452 0.762137C20.2085 0.786491 20.1734 0.812128 20.1393 0.839687C20.1052 0.867246 20.0727 0.896407 20.0415 0.927171C20.0103 0.957935 19.9808 0.9903 19.9529 1.02363C19.9249 1.05728 19.8989 1.0922 19.8743 1.12842C19.8499 1.16463 19.8272 1.2018 19.8064 1.23993C19.7859 1.27839 19.7671 1.31748 19.7502 1.35786C19.7333 1.39792 19.7183 1.43862 19.7057 1.48028C19.693 1.52193 19.6823 1.56391 19.6735 1.60653C19.6651 1.64915 19.6586 1.6921 19.6544 1.73536C19.6498 1.77862 19.6479 1.8222 19.6479 1.86546C19.6479 1.90904 19.6498 1.9523 19.6544 1.99557C19.6586 2.03883 19.6651 2.08177 19.6735 2.12439C19.6823 2.16701 19.693 2.20931 19.7057 2.25065C19.7183 2.29231 19.7333 2.33332 19.7502 2.37338C19.7671 2.41344 19.7859 2.45285 19.8064 2.49099C19.8272 2.52944 19.8499 2.56662 19.8743 2.60283C19.8989 2.63904 19.9249 2.67365 19.9529 2.7073C19.9808 2.74094 20.0103 2.77331 20.0415 2.80375C20.0727 2.83452 20.1052 2.86368 20.1393 2.89124C20.1734 2.91879 20.2085 2.94475 20.2452 2.96879C20.2819 2.99314 20.3196 3.01525 20.3585 3.03576C20.3972 3.05627 20.4371 3.07486 20.4777 3.09152C20.5183 3.10818 20.5596 3.12292 20.6018 3.13542C20.644 3.14792 20.6866 3.15849 20.7298 3.16715C20.773 3.17548 20.8165 3.18189 20.8604 3.18605C20.9042 3.19054 20.9481 3.19246 20.9922 3.19246C21.0361 3.19246 21.0799 3.19054 21.1238 3.18605C21.1676 3.18189 21.2112 3.17548 21.2544 3.16715C21.2976 3.15849 21.3401 3.14792 21.3823 3.13542C21.4246 3.12292 21.4658 3.10818 21.5067 3.09152C21.5473 3.07486 21.587 3.05627 21.6259 3.03576C21.6646 3.01525 21.7023 2.99314 21.739 2.96879C21.7757 2.94475 21.8111 2.91879 21.8449 2.89124C21.879 2.86368 21.9114 2.83452 21.9426 2.80375C21.9738 2.77331 22.0034 2.74094 22.0313 2.7073C22.0592 2.67365 22.0855 2.63904 22.1099 2.60283C22.1343 2.56662 22.157 2.52944 22.1778 2.49099C22.1986 2.45285 22.2174 2.41344 22.2343 2.37338C22.2509 2.33332 22.2658 2.29231 22.2785 2.25065C22.2915 2.20931 22.3022 2.16701 22.3106 2.12439C22.3191 2.08177 22.3256 2.03883 22.3301 1.99557C22.3343 1.9523 22.3366 1.90904 22.3366 1.86546C22.3366 1.8222 22.3343 1.77862 22.3301 1.73536C22.3256 1.6921 22.3191 1.64915 22.3106 1.60653C22.3022 1.56391 22.2915 1.52193 22.2785 1.48028C22.2658 1.43862 22.2509 1.39792 22.2343 1.35786C22.2174 1.31748 22.1986 1.27839 22.1778 1.23993C22.157 1.2018 22.1343 1.16463 22.1099 1.12842C22.0855 1.0922 22.0592 1.05728 22.0313 1.02363C22.0034 0.9903 21.9738 0.957935 21.9426 0.927171C21.9114 0.896407 21.879 0.867246 21.8449 0.839687C21.8111 0.812128 21.7757 0.786491 21.739 0.762137C21.7023 0.738103 21.6646 0.715671 21.6259 0.695162C21.587 0.674653 21.5473 0.656387 21.5067 0.639723C21.4658 0.62306 21.4246 0.608319 21.3823 0.595821C21.3401 0.583003 21.2976 0.572428 21.2544 0.564096C21.2112 0.555764 21.1676 0.549355 21.1238 0.544869C21.0799 0.540703 21.0361 0.53846 20.9922 0.53846ZM22.3503 5.69299C22.258 5.69267 22.1716 5.71382 22.0904 5.75708C22.0095 5.80034 21.9442 5.86026 21.8942 5.93685C21.8942 5.93685 20.151 8.36173 17.4967 8.36173C14.8424 8.36173 13.0995 5.93685 13.0995 5.93685C13.0485 5.86154 12.9822 5.80322 12.901 5.76124C12.8195 5.71958 12.7331 5.69972 12.6415 5.70132C12.5924 5.7026 12.5447 5.70997 12.4979 5.72375C12.4511 5.73785 12.407 5.75772 12.3657 5.78335C12.3245 5.80931 12.2874 5.84007 12.2546 5.87565C12.2218 5.91154 12.1942 5.95095 12.1725 5.99389C12.1504 6.03715 12.1348 6.08234 12.1254 6.12977C12.1159 6.17719 12.113 6.22494 12.1169 6.27301C12.1205 6.32108 12.1309 6.36786 12.1474 6.41305C12.164 6.45855 12.1867 6.50085 12.215 6.54027C12.215 6.54027 14.195 9.42307 17.4967 9.42307C20.7983 9.42307 22.7787 6.54027 22.7787 6.54027C22.8082 6.50085 22.8319 6.45823 22.8495 6.41241C22.867 6.36658 22.8781 6.31915 22.8823 6.27044C22.8868 6.22142 22.8842 6.17303 22.8748 6.12496C22.8657 6.07657 22.8498 6.03074 22.8277 5.98684C22.8056 5.94294 22.7777 5.90288 22.7442 5.86667C22.7108 5.83046 22.6731 5.79938 22.6309 5.77342C22.5887 5.74746 22.5438 5.72759 22.4961 5.71414C22.4483 5.70036 22.3996 5.69331 22.3503 5.69299Z" fill="#000000"/>
        <path d="M10.7224 9.69231C10.6584 9.69231 10.5969 9.70384 10.5376 9.72659L7.46806 10.8376C7.39112 10.8618 7.32376 10.9019 7.26628 10.9574C7.2085 11.0132 7.16648 11.0785 7.14052 11.1537L4.65342 15.0628C4.63334 15.0946 4.61727 15.128 4.6046 15.1632C4.59224 15.1984 4.5839 15.2345 4.57957 15.2715C4.57525 15.3085 4.57494 15.3458 4.57927 15.3828C4.58328 15.4198 4.59132 15.4559 4.60368 15.4914C4.61604 15.5266 4.6321 15.56 4.65188 15.5918C4.67196 15.6237 4.69514 15.6528 4.72171 15.6795C4.74829 15.7062 4.77733 15.7299 4.80916 15.7499C4.84098 15.7702 4.87466 15.7869 4.9102 15.8L7.13342 16.6048V22.3639C7.13342 22.4155 7.14145 22.4655 7.15721 22.5144C7.17266 22.5635 7.19552 22.609 7.2255 22.6512C7.25547 22.6934 7.291 22.7301 7.33241 22.7613C7.37381 22.7929 7.41924 22.8175 7.46806 22.8351L17.1878 26.3528C17.3058 26.3952 17.4236 26.3952 17.5416 26.3528L27.2613 22.8351C27.3101 22.8175 27.3556 22.7929 27.397 22.7613C27.4384 22.7301 27.4739 22.6934 27.5039 22.6512C27.5339 22.609 27.5567 22.5635 27.5722 22.5144C27.5879 22.4655 27.596 22.4155 27.596 22.3639V16.6048L29.8189 15.8C29.8547 15.7869 29.8884 15.7702 29.9202 15.7499C29.9521 15.7299 29.9811 15.7062 30.0077 15.6795C30.0342 15.6528 30.0574 15.6237 30.0772 15.5918C30.0973 15.56 30.1134 15.5266 30.1257 15.4914C30.1378 15.4559 30.1461 15.4198 30.1501 15.3828C30.1541 15.3458 30.1541 15.3085 30.1498 15.2715C30.1455 15.2345 30.1371 15.1984 30.1248 15.1632C30.1121 15.128 30.0957 15.0946 30.0757 15.0628L27.5879 11.1516C27.5617 11.0769 27.5196 11.012 27.4622 10.9568C27.4047 10.9016 27.3377 10.8618 27.2613 10.8376C27.2545 10.8351 27.248 10.833 27.2412 10.8309L24.1918 9.72659C24.1272 9.70202 24.0601 9.69109 23.9909 9.69322C23.9316 9.69534 23.8741 9.70748 23.8191 9.72902C23.7638 9.75086 23.7141 9.7812 23.6696 9.82003C23.6254 9.85886 23.5889 9.90407 23.5605 9.95534C23.5321 10.0066 23.5132 10.0612 23.5043 10.1189C23.4953 10.1768 23.4965 10.2341 23.508 10.2915C23.5191 10.3488 23.5401 10.4028 23.5707 10.4529C23.601 10.5029 23.6393 10.5466 23.6853 10.5836C23.7311 10.621 23.782 10.6492 23.8383 10.6689L25.6057 11.3087L17.3645 14.2913L13.2441 12.8L9.12365 11.3087L10.8911 10.6689C10.9483 10.6492 10.9999 10.6203 11.0465 10.5827C11.0929 10.5451 11.1315 10.5008 11.1621 10.4495C11.1927 10.3986 11.2134 10.344 11.2245 10.2857C11.2353 10.2275 11.2356 10.1689 11.2257 10.1107C11.2155 10.0521 11.1955 9.9972 11.1655 9.94593C11.1358 9.89436 11.0978 9.84946 11.0518 9.81123C11.0057 9.77301 10.9544 9.74358 10.8979 9.72325C10.841 9.70262 10.7826 9.69231 10.7224 9.69231ZM7.85894 11.9212L16.5982 15.0834V15.0843L14.5941 18.234L5.85356 15.0715L7.85894 11.9212ZM26.8704 11.9212L28.8758 15.0715L20.1353 18.234L18.1321 15.0843L26.8704 11.9212ZM16.8532 16.5772V25.1602L8.1565 22.0135V16.9747L14.6299 19.3174C14.6852 19.3374 14.7421 19.3477 14.8008 19.3483C14.8595 19.3492 14.9167 19.3401 14.9723 19.3213C15.0279 19.3028 15.0786 19.2755 15.1246 19.2397C15.1707 19.2036 15.2093 19.1614 15.2405 19.1123L16.8532 16.5772ZM17.8762 16.5772L19.4889 19.1123C19.5201 19.1614 19.5587 19.2036 19.6047 19.2397C19.6508 19.2755 19.7015 19.3028 19.7571 19.3213C19.8127 19.3401 19.8699 19.3492 19.9286 19.3483C19.9873 19.3477 20.0441 19.3374 20.0994 19.3174L26.5729 16.9747V22.0135L17.8762 25.1602V16.5772Z" fill="#55BBE2"/>
    </g>
    <defs>
        <clipPath id="clip0_68_20">
            <rect width="175" height="27.4615" fill="white" transform="translate(0 0.53846)"/>
        </clipPath>
    </defs>
</svg>
